<svg width="64" height="64" viewBox="0 0 64 64" fill="none" xmlns="http://www.w3.org/2000/svg">
<path d="M32 60.7198C31.876 60.7198 31.75 60.6858 31.638 60.6198L7.63803 46.6198C7.41603 46.4918 7.28003 46.2558 7.28003 45.9998V17.9998H8.72003V45.5858L32 59.1658L55.28 45.5858V27.9998H56.722V45.9998C56.722 46.2558 56.586 46.4918 56.364 46.6218L32.364 60.6218C32.25 60.6878 32.124 60.7198 32 60.7198ZM32 40.7198C27.192 40.7198 23.28 36.8078 23.28 31.9998C23.28 27.1918 27.192 23.2798 32 23.2798C35.028 23.2798 37.7 24.8298 39.262 27.1778L54.584 18.0078L32 4.83377L24.72 9.06577V19.9998H23.28V8.64977C23.28 8.39377 23.416 8.15577 23.638 8.02777L31.638 3.37777C31.862 3.24777 32.14 3.24777 32.362 3.37777L56.362 17.3778C56.58 17.5058 56.718 17.7418 56.72 17.9958C56.72 18.2498 56.588 18.4878 56.368 18.6178L39.958 28.4398C40.446 29.5278 40.72 30.7318 40.72 31.9998C40.72 36.8078 36.808 40.7198 32 40.7198ZM32 24.7198C27.986 24.7198 24.72 27.9858 24.72 31.9998C24.72 36.0138 27.986 39.2798 32 39.2798C36.014 39.2798 39.28 36.0138 39.28 31.9998C39.28 27.9858 36.014 24.7198 32 24.7198ZM16.72 31.9998H15.28V11.9998H16.72V31.9998Z" fill="#FF7637"/>
</svg>
