<svg width="64" height="64" viewBox="0 0 64 64" fill="none" xmlns="http://www.w3.org/2000/svg">
<path d="M8.192 18.7198H18.962C17.892 22.6958 17.28 27.2078 17.28 31.9998H18.72C18.72 27.1798 19.338 22.6538 20.41 18.7198H31.28V31.9998H32.72V18.7198H43.59C44.662 22.6538 45.28 27.1798 45.28 31.9998H46.722C46.722 27.2078 46.11 22.6958 45.042 18.7198H55.81C58.014 22.6538 59.282 27.1798 59.282 31.9998H60.724C60.724 16.1638 47.84 3.27979 32.004 3.27979C16.168 3.27979 3.28 16.1638 3.28 31.9998H4.72C4.72 27.1798 5.988 22.6538 8.192 18.7198ZM20.836 17.2798C23.078 10.1278 26.898 5.27979 31.28 4.79379V17.2798H20.836ZM32.72 17.2798V4.79379C37.102 5.27979 40.92 10.1278 43.164 17.2798H32.72ZM54.932 17.2798H44.616C42.942 11.8418 40.38 7.57379 37.314 5.24779C44.692 6.71179 50.992 11.1638 54.932 17.2798ZM26.686 5.24779C23.622 7.57379 21.058 11.8418 19.386 17.2798H9.068C13.008 11.1638 19.308 6.71179 26.686 5.24779ZM45.28 37.9998V39.0798L38 37.2798H32.502C31.358 37.2798 30.254 37.6958 29.396 38.4498L28.448 39.2798H18.72V37.9998C18.72 37.6018 18.398 37.2798 18 37.2798H4V38.7218H17.28V55.2798H4V56.7218H18C18.398 56.7218 18.72 56.3998 18.72 56.0018V54.7218H20.628L24.924 60.8058C25.46 61.4038 26.204 61.7118 26.954 61.7118C27.498 61.7118 28.044 61.5498 28.518 61.2158L29.804 60.3118C29.88 60.3398 29.94 60.3958 30.02 60.4178C30.254 60.4778 30.49 60.5098 30.724 60.5098C31.196 60.5098 31.662 60.3858 32.08 60.1418L33.744 59.1818C34.048 59.2938 34.362 59.3718 34.688 59.3718C35.148 59.3718 35.616 59.2538 36.044 59.0078L37.71 58.0458C38.014 58.1578 38.328 58.2358 38.654 58.2358C39.114 58.2358 39.584 58.1178 40.012 57.8718C41.136 57.2218 41.568 55.8918 41.198 54.7198H45.282V55.9998C45.282 56.3978 45.604 56.7198 46.002 56.7198H60.002V55.2798H46.722V38.7198H60V37.2798H46C45.602 37.2798 45.28 37.6018 45.28 37.9998ZM39.29 56.6258C38.68 56.9778 37.892 56.7678 37.54 56.1578L34.54 50.9618L33.292 51.6798L36.432 57.1198L35.324 57.7578C34.712 58.1158 33.928 57.9018 33.574 57.2918L31.574 53.8278L31.074 52.9618L29.828 53.6798L30.328 54.5438L32.328 58.0078C32.328 58.0098 32.33 58.0098 32.332 58.0118L32.47 58.2498L31.36 58.8898C31.068 59.0618 30.724 59.1058 30.394 59.0178C30.064 58.9298 29.79 58.7198 29.618 58.4278L27.614 54.9578L26.366 55.6758L28.366 59.1398C28.368 59.1418 28.37 59.1438 28.37 59.1458L28.538 59.4358L27.69 60.0338C27.16 60.4078 26.434 60.3238 26.05 59.9058L21.59 53.5818C21.454 53.3898 21.236 53.2758 21.002 53.2758H18.72V40.7198H26.8L23.028 44.0198C22.748 44.2618 22.58 44.6138 22.568 44.9818C22.554 45.3518 22.696 45.7138 22.96 45.9758C24.664 47.6798 27.368 47.8278 29.248 46.3238L31.254 44.7178H34.56L39.758 54.8738C40.108 55.4878 39.898 56.2738 39.29 56.6258ZM40.554 53.2798L35.64 43.6718C35.516 43.4318 35.268 43.2798 35 43.2798H31C30.836 43.2798 30.678 43.3358 30.55 43.4378L28.346 45.2018C27.04 46.2458 25.164 46.1458 23.974 45.1058L30.344 39.5318C30.94 39.0078 31.706 38.7218 32.502 38.7218L37.826 38.6998L45.28 40.5638V53.2798H40.554Z" fill="#FF7637"/>
</svg>
