<svg width="64" height="64" viewBox="0 0 64 64" fill="none" xmlns="http://www.w3.org/2000/svg">
<path d="M60.544 29.3358C59.276 15.6798 48.318 4.71979 34.666 3.45179C34.41 2.21379 33.312 1.27979 32 1.27979C30.676 1.27979 29.574 2.22979 29.332 3.48579C21.132 4.24579 13.75 8.41378 8.884 15.0318C8.606 14.9358 8.312 14.8718 8 14.8718C6.5 14.8718 5.28 16.0918 5.28 17.5918C5.28 18.3798 5.622 19.0838 6.158 19.5818C4.268 23.4998 3.28 27.6698 3.28 31.9998C3.28 37.5738 4.888 42.9458 7.908 47.5998C7.522 48.0698 7.28 48.6618 7.28 49.3158C7.28 50.8158 8.5 52.0358 10 52.0358C10.44 52.0358 10.848 51.9218 11.216 51.7358C16.636 57.4398 24.164 60.7198 32 60.7198C32.398 60.7198 32.72 60.3978 32.72 59.9998V42.6118C33.87 42.2938 34.72 41.2498 34.72 39.9998C34.72 38.7498 33.868 37.7058 32.72 37.3878V6.60979C33.498 6.39578 34.134 5.85179 34.466 5.12979C41.814 7.28379 47.28 18.6138 47.28 31.9998H48.722C48.722 20.2278 44.554 9.92778 38.504 5.54778C49.568 8.28378 58.02 17.8398 59.108 29.4438C58.048 29.8158 57.28 30.8158 57.28 32.0018C57.28 33.5018 58.5 34.7218 60 34.7218C61.5 34.7218 62.72 33.5018 62.72 32.0018C62.72 30.6858 61.784 29.5878 60.544 29.3358ZM29.28 39.9998C29.28 41.2498 30.13 42.2938 31.28 42.6118V59.2158C23.754 58.5758 17.536 48.0478 16.82 34.5798C17.918 34.2298 18.72 33.2118 18.72 31.9998C18.72 30.7858 17.916 29.7698 16.818 29.4198C17.472 17.1098 22.72 7.13179 29.534 5.12979C29.866 5.84979 30.504 6.39578 31.28 6.60979V37.3878C30.13 37.7058 29.28 38.7498 29.28 39.9998ZM16 30.7198C16.706 30.7198 17.28 31.2938 17.28 31.9998C17.28 32.7058 16.706 33.2798 16 33.2798C15.294 33.2798 14.72 32.7058 14.72 31.9998C14.72 31.2938 15.294 30.7198 16 30.7198ZM8 16.3118C8.706 16.3118 9.28 16.8858 9.28 17.5918C9.28 18.2978 8.706 18.8718 8 18.8718C7.294 18.8718 6.72 18.2978 6.72 17.5918C6.72 16.8858 7.294 16.3118 8 16.3118ZM8.72 49.3158C8.72 48.6098 9.294 48.0358 10 48.0358C10.706 48.0358 11.28 48.6098 11.28 49.3158C11.28 50.0218 10.706 50.5958 10 50.5958C9.294 50.5958 8.72 50.0218 8.72 49.3158ZM12.288 50.7738C12.558 50.3518 12.72 49.8538 12.72 49.3158C12.72 47.8158 11.5 46.5958 10 46.5958C9.676 46.5958 9.37 46.6618 9.084 46.7658C6.236 42.3578 4.72 37.2718 4.72 31.9998C4.72 27.9038 5.652 23.9598 7.434 20.2498C7.616 20.2878 7.806 20.3098 8 20.3098C9.5 20.3098 10.72 19.0898 10.72 17.5898C10.72 16.9238 10.47 16.3218 10.072 15.8478C13.878 10.6878 19.3 7.11579 25.442 5.60579C19.91 9.66578 15.946 18.6978 15.38 29.3578C14.178 29.6398 13.28 30.7138 13.28 31.9998C13.28 33.2858 14.18 34.3618 15.38 34.6438C15.956 45.4598 20.03 54.4918 25.59 58.4958C20.558 57.2638 15.928 54.5938 12.288 50.7738ZM33.28 39.9998C33.28 40.7058 32.706 41.2798 32 41.2798C31.294 41.2798 30.72 40.7058 30.72 39.9998C30.72 39.2938 31.294 38.7198 32 38.7198C32.706 38.7198 33.28 39.2938 33.28 39.9998ZM32 5.27979C31.294 5.27979 30.72 4.70579 30.72 3.99979C30.72 3.29379 31.294 2.71979 32 2.71979C32.706 2.71979 33.28 3.29379 33.28 3.99979C33.28 4.70579 32.706 5.27979 32 5.27979ZM60 33.2798C59.294 33.2798 58.72 32.7058 58.72 31.9998C58.72 31.2938 59.294 30.7198 60 30.7198C60.706 30.7198 61.28 31.2938 61.28 31.9998C61.28 32.7058 60.706 33.2798 60 33.2798ZM37.28 56.7198H42.722V49.2798H37.28V56.7198ZM38.72 50.7198H41.278V55.2778H38.72V50.7198ZM45.28 56.7198H50.722V43.2798H45.28V56.7198ZM46.72 44.7198H49.278V55.2778H46.72V44.7198ZM53.28 56.7198H58.722V37.2798H53.28V56.7198ZM54.72 38.7198H57.278V55.2778H54.72V38.7198Z" fill="#FF7637"/>
</svg>
