<svg width="65" height="64" viewBox="0 0 65 64" fill="none" xmlns="http://www.w3.org/2000/svg">
<path d="M32.3333 62.7201C32.2153 62.7201 32.0993 62.6901 31.9913 62.6341L5.99134 48.6341C5.75934 48.5081 5.61334 48.2661 5.61334 48.0001V16.0001C5.61334 15.7361 5.75934 15.4921 5.99134 15.3661L31.9913 1.36605C32.2053 1.25005 32.4593 1.25005 32.6753 1.36605L58.6753 15.3661C58.9073 15.4921 59.0533 15.7361 59.0533 16.0001V48.0001C59.0533 48.2661 58.9073 48.5081 58.6753 48.6341L32.6753 62.6341C32.5673 62.6921 32.4513 62.7201 32.3333 62.7201ZM33.0533 45.4281V60.7961L57.6133 47.5721V17.2061L45.0553 23.9701V38.4681C45.0553 38.7321 44.9113 38.9741 44.6793 39.1001L33.0533 45.4281ZM7.05334 47.5701L31.6133 60.7941V45.4261L19.9893 39.1001C19.7573 38.9741 19.6133 38.7301 19.6133 38.4681V23.9701L7.05334 17.2061V47.5701ZM33.0533 30.4301V43.7901L43.6133 38.0401V24.7461L33.0533 30.4301ZM21.0533 38.0401L31.6133 43.7901V30.4301L21.0533 24.7441V38.0401ZM21.8413 23.5321L32.3333 29.1821L42.8253 23.5321L32.3333 17.8201L21.8413 23.5321ZM32.3333 16.2801C32.4513 16.2801 32.5713 16.3101 32.6773 16.3661L44.3393 22.7161L56.8133 16.0001L32.3333 2.81805L7.85134 16.0001L20.3253 22.7161L31.9873 16.3661C32.0953 16.3101 32.2153 16.2801 32.3333 16.2801Z" fill="#FF7637"/>
</svg>
