<svg width="65" height="64" viewBox="0 0 65 64" fill="none" xmlns="http://www.w3.org/2000/svg">
<path d="M52.6667 58.7198H12.6667V57.2798H25.9847C26.3187 54.1498 28.8147 51.6538 31.9467 51.3198V22.6658C29.6847 22.3178 27.9467 20.3578 27.9467 17.9998C27.9467 15.6418 29.6847 13.6818 31.9467 13.3338V6.71978H12.9387L21.2847 20.6298C21.3527 20.7418 21.3867 20.8698 21.3867 20.9998C21.3867 26.3598 17.0267 30.7198 11.6667 30.7198C6.30666 30.7198 1.94666 26.3598 1.94666 20.9998C1.94666 20.8698 1.98266 20.7418 2.04866 20.6298L11.0487 5.62979C11.1787 5.41379 11.4147 5.27979 11.6667 5.27979H53.6667C53.9187 5.27979 54.1527 5.41179 54.2847 5.62979L63.2847 20.6298C63.3507 20.7418 63.3887 20.8698 63.3887 20.9998C63.3887 26.3598 59.0267 30.7198 53.6687 30.7198C48.3107 30.7198 43.9487 26.3598 43.9487 20.9998C43.9487 20.8698 43.9867 20.7418 44.0527 20.6298L52.3987 6.71978H33.3867V13.3358C35.6487 13.6838 37.3867 15.6438 37.3867 18.0018C37.3867 20.3598 35.6487 22.3198 33.3867 22.6678V51.3218C36.5187 51.6558 39.0147 54.1518 39.3487 57.2818H52.6667V58.7198ZM27.4347 57.2798H37.8967C37.5447 54.7078 35.3347 52.7198 32.6667 52.7198C30.0007 52.7198 27.7887 54.7078 27.4347 57.2798ZM45.4187 21.7198C45.7847 25.9498 49.3447 29.2798 53.6667 29.2798C57.9887 29.2798 61.5487 25.9498 61.9147 21.7198H45.4187ZM3.41666 21.7198C3.78266 25.9498 7.34266 29.2798 11.6667 29.2798C15.9907 29.2798 19.5487 25.9498 19.9167 21.7198H3.41666ZM32.6667 14.7198C30.8587 14.7198 29.3867 16.1918 29.3867 17.9998C29.3867 19.8078 30.8587 21.2798 32.6667 21.2798C34.4747 21.2798 35.9467 19.8078 35.9467 17.9998C35.9467 16.1918 34.4747 14.7198 32.6667 14.7198ZM45.9387 20.2798H61.3967L53.6667 7.39979L45.9387 20.2798ZM3.93866 20.2798H19.3967L11.6667 7.39979L3.93866 20.2798Z" fill="#FF7637"/>
</svg>
