<svg width="32" height="32" viewBox="0 0 32 32" fill="none" xmlns="http://www.w3.org/2000/svg">
<path d="M23.5 15.375V16.625C23.5 16.7908 23.4342 16.9497 23.3169 17.0669C23.1997 17.1842 23.0408 17.25 22.875 17.25H9.125C8.95924 17.25 8.80027 17.1842 8.68306 17.0669C8.56585 16.9497 8.5 16.7908 8.5 16.625V15.375C8.5 15.2092 8.56585 15.0503 8.68306 14.9331C8.80027 14.8158 8.95924 14.75 9.125 14.75H22.875C23.0408 14.75 23.1997 14.8158 23.3169 14.9331C23.4342 15.0503 23.5 15.2092 23.5 15.375ZM22.875 19.75H9.125C8.95924 19.75 8.80027 19.8158 8.68306 19.9331C8.56585 20.0503 8.5 20.2092 8.5 20.375V21.625C8.5 21.7908 8.56585 21.9497 8.68306 22.0669C8.80027 22.1842 8.95924 22.25 9.125 22.25H22.875C23.0408 22.25 23.1997 22.1842 23.3169 22.0669C23.4342 21.9497 23.5 21.7908 23.5 21.625V20.375C23.5 20.2092 23.4342 20.0503 23.3169 19.9331C23.1997 19.8158 23.0408 19.75 22.875 19.75ZM22.875 9.75H9.125C8.95924 9.75 8.80027 9.81585 8.68306 9.93306C8.56585 10.0503 8.5 10.2092 8.5 10.375V11.625C8.5 11.7908 8.56585 11.9497 8.68306 12.0669C8.80027 12.1842 8.95924 12.25 9.125 12.25H22.875C23.0408 12.25 23.1997 12.1842 23.3169 12.0669C23.4342 11.9497 23.5 11.7908 23.5 11.625V10.375C23.5 10.2092 23.4342 10.0503 23.3169 9.93306C23.1997 9.81585 23.0408 9.75 22.875 9.75Z" fill="white"/>
</svg>
